
<svg xmlns="http://www.w3.org/2000/svg" xmlns:xlink="http://www.w3.org/1999/xlink" width="1920" height="574" viewBox="0 0 1920 574"><defs><linearGradient id="uuid-4b090b68-7cfa-4da2-89a3-13b05ec56764" x1="600.373" x2="611.904" y1="318.279" y2="650.907" gradientUnits="userSpaceOnUse"><stop offset="0" stop-color="#3b45ff" stop-opacity=".6"/><stop offset=".907" stop-color="#44ffb3" stop-opacity=".7"/></linearGradient><linearGradient id="uuid-5d6af88f-f951-4fe2-a918-86c058de872c" x1="1230.233" x2="1920.093" y1="362.902" y2="362.902" xlink:href="#uuid-4b090b68-7cfa-4da2-89a3-13b05ec56764"/><linearGradient id="uuid-fd2eddfe-7469-46cd-8a06-2dfc1ee42eef" x1="955.077" x2="970.917" y1="-25.871" y2="573.779" gradientUnits="userSpaceOnUse"><stop offset="0" stop-color="#3f60ff"/><stop offset=".79" stop-color="#549fdb"/><stop offset="1" stop-color="#5ab1d2"/></linearGradient><linearGradient id="uuid-f3cad162-1f85-4413-8fe7-117ba1d02e49" x1="954.723" x2="972.463" y1="-89.682" y2="751.202" gradientUnits="userSpaceOnUse"><stop offset=".068" stop-color="#5162f9"/><stop offset=".189" stop-color="#506af5" stop-opacity=".984"/><stop offset=".36" stop-color="#4e81ea" stop-opacity=".94"/><stop offset=".56" stop-color="#4ba7d9" stop-opacity=".867"/><stop offset=".781" stop-color="#46dcc2" stop-opacity=".766"/><stop offset=".907" stop-color="#44ffb3" stop-opacity=".7"/></linearGradient><linearGradient id="uuid-ecbb415f-5811-4365-ac50-43250d0f3368" x1="509.666" x2="468.864" y1="-160.717" y2="655.33" gradientUnits="userSpaceOnUse"><stop offset="0" stop-color="#3b45ff" stop-opacity=".6"/><stop offset=".907" stop-color="#44ffd3" stop-opacity=".7"/></linearGradient><linearGradient id="uuid-fe9ffc49-665e-4e84-9a95-99e96cd53747" x1="1372.369" x2="1464.612" y1="64.08" y2="475.624" gradientUnits="userSpaceOnUse"><stop offset="0" stop-color="#3b45ff" stop-opacity=".6"/><stop offset=".13" stop-color="#3b55fa" stop-opacity=".609"/><stop offset=".366" stop-color="#3d80ef" stop-opacity=".632"/><stop offset=".678" stop-color="#41c6de" stop-opacity=".669"/><stop offset=".907" stop-color="#44ffd0" stop-opacity=".7"/></linearGradient><linearGradient id="uuid-9d4ff17c-0cdf-4eba-9ec3-aa10667bd826" x1="262.376" x2="297.462" y1="308.899" y2="127.161" gradientUnits="userSpaceOnUse"><stop offset=".436" stop-color="#498eea"/><stop offset=".612" stop-color="#4891ea"/><stop offset=".744" stop-color="#469aee"/><stop offset=".862" stop-color="#44aaf3"/><stop offset=".97" stop-color="#40c1fa"/><stop offset="1" stop-color="#3fc9fd"/></linearGradient><linearGradient id="uuid-7811870a-db93-43f1-9219-24ac7affec21" x1="239.37" x2="433.724" y1="289.065" y2="144.778" gradientUnits="userSpaceOnUse"><stop offset=".253" stop-color="#499ce5"/><stop offset=".452" stop-color="#498eea"/><stop offset=".526" stop-color="#4892eb"/><stop offset=".608" stop-color="#469fef"/><stop offset=".693" stop-color="#42b5f6"/><stop offset=".752" stop-color="#3fc9fd"/></linearGradient><linearGradient id="uuid-fc27fb36-ff98-4d30-a2a2-4a5904a96361" x1="498.311" x2="451.993" y1="151.992" y2="212.591" gradientTransform="translate(804.8505 382.6044) rotate(-178.8699)" gradientUnits="userSpaceOnUse"><stop offset="0" stop-color="#4a8dea"/><stop offset=".231" stop-color="#4991eb"/><stop offset=".476" stop-color="#469eef"/><stop offset=".727" stop-color="#43b3f6"/><stop offset=".922" stop-color="#3fc9fd"/></linearGradient><linearGradient id="uuid-8317203c-a7b9-45a3-9958-4acd6377fe86" x1="262.298" x2="314.927" y1="232.125" y2="141.355" gradientTransform="matrix(1,0,0,1,0,0)" xlink:href="#uuid-fc27fb36-ff98-4d30-a2a2-4a5904a96361"/><linearGradient id="uuid-80248f51-7f13-4be4-91df-bc3de84c28fd" x1="217.111" x2="292.555" y1="256.268" y2="185.437" xlink:href="#uuid-9d4ff17c-0cdf-4eba-9ec3-aa10667bd826"/><linearGradient id="uuid-ca687fe7-7696-434d-98a1-0bba526898fd" x1="516.596" x2="492.125" y1="218.215" y2="258.222" gradientTransform="translate(830.1817 436.9502) rotate(-176.5698) scale(1.0136 .873) skewX(4.2755)" xlink:href="#uuid-9d4ff17c-0cdf-4eba-9ec3-aa10667bd826"/><linearGradient id="uuid-ec424b5f-fb3b-499d-8edc-33a095f20134" x1="537.682" x2="460.407" y1="48.863" y2="192.82" gradientTransform="translate(804.8505 382.6044) rotate(-178.8699)" gradientUnits="userSpaceOnUse"><stop offset=".436" stop-color="#498eea"/><stop offset=".606" stop-color="#4891ea"/><stop offset=".733" stop-color="#469aee"/><stop offset=".846" stop-color="#44aaf3"/><stop offset=".951" stop-color="#40c1fa"/><stop offset=".98" stop-color="#3fc9fd"/></linearGradient><linearGradient id="uuid-b66330d3-b7c2-4290-8abf-4c23c485dd47" x1="476.531" x2="493.402" y1="217.024" y2="177.314" gradientTransform="translate(804.8505 382.6044) rotate(-178.8699)" xlink:href="#uuid-9d4ff17c-0cdf-4eba-9ec3-aa10667bd826"/><linearGradient id="uuid-f95fb8c2-5873-4c0c-ab84-430583f82ab8" x1="553.749" x2="473.008" y1="20.976" y2="194.929" gradientTransform="translate(804.8505 382.6044) rotate(-178.8699)" gradientUnits="userSpaceOnUse"><stop offset=".545" stop-color="#498eea"/><stop offset=".654" stop-color="#4893eb"/><stop offset=".787" stop-color="#45a2f0"/><stop offset=".931" stop-color="#41baf8"/><stop offset="1" stop-color="#3fc9fd"/></linearGradient><linearGradient id="uuid-14be68cc-df84-436c-b693-12886091e614" x1="299.34" x2="157.445" y1="223.469" y2="501.915" gradientUnits="userSpaceOnUse"><stop offset="0" stop-color="#6c3bff" stop-opacity=".6"/><stop offset=".907" stop-color="#44ffd3" stop-opacity=".7"/></linearGradient><linearGradient id="uuid-f6deaee8-689d-472a-94e0-450282308691" x1="103.218" x2="150.23" y1="413.397" y2="220.917" xlink:href="#uuid-14be68cc-df84-436c-b693-12886091e614"/><linearGradient id="uuid-f7193b0a-2f26-461d-953c-3f9aa107d10c" x1="406.359" x2="308.788" y1="252.534" y2="468.077" xlink:href="#uuid-14be68cc-df84-436c-b693-12886091e614"/><linearGradient id="uuid-e7be143b-335b-4d0f-8f97-79331657928c" x1="139.918" x2="67.184" y1="250.717" y2="421.022" xlink:href="#uuid-14be68cc-df84-436c-b693-12886091e614"/><linearGradient id="uuid-d61a6c6e-39a3-4786-a52b-339e0a7bb3d4" x1="366.596" x2="284.991" y1="369.931" y2="530.775" xlink:href="#uuid-14be68cc-df84-436c-b693-12886091e614"/><linearGradient id="uuid-b3842e28-6103-4bd1-ac85-32a02cb8ddcd" x1="1463.37" x2="1487.882" y1="213.461" y2="213.461" gradientUnits="userSpaceOnUse"><stop offset="0" stop-color="#8598e0"/><stop offset=".274" stop-color="#809ee2" stop-opacity=".969"/><stop offset=".685" stop-color="#75b0e9" stop-opacity=".884"/><stop offset="1" stop-color="#6ac3f0" stop-opacity=".8"/></linearGradient><linearGradient id="uuid-58d1daac-8ad8-42f5-b968-fea3657ea10f" x1="1474.087" x2="1478.349" y1="213.818" y2="213.818" xlink:href="#uuid-b3842e28-6103-4bd1-ac85-32a02cb8ddcd"/><linearGradient id="uuid-42a13501-74ea-4fb2-a932-338b24e31bcb" x1="526.918" x2="512.726" y1="600.987" y2="366.817" xlink:href="#uuid-4b090b68-7cfa-4da2-89a3-13b05ec56764"/><linearGradient id="uuid-12a30a64-f3f6-4e13-836b-80ac1e278a1d" x1="1763.375" x2="1870.092" y1="313.717" y2="313.717" gradientUnits="userSpaceOnUse"><stop offset=".22" stop-color="#8598e0" stop-opacity=".3"/><stop offset=".331" stop-color="#839ae0" stop-opacity=".33"/><stop offset=".497" stop-color="#7ea1e3" stop-opacity=".412"/><stop offset=".699" stop-color="#77ade7" stop-opacity=".547"/><stop offset=".925" stop-color="#6dbded" stop-opacity=".732"/><stop offset="1" stop-color="#6ac3f0" stop-opacity=".8"/></linearGradient><linearGradient id="uuid-d0f661ba-d21c-42b1-8566-cd17b1dfef44" x1="1826.888" x2="1817.033" y1="363.422" y2="315.524" xlink:href="#uuid-12a30a64-f3f6-4e13-836b-80ac1e278a1d"/><linearGradient id="uuid-197ea80a-a822-4f77-9a19-7ab179ee72a8" x1="445.721" x2="513.133" y1="407.036" y2="353.815" xlink:href="#uuid-12a30a64-f3f6-4e13-836b-80ac1e278a1d"/><linearGradient id="uuid-c810d92d-ea80-446d-9b52-66bf8678c958" x1="1800.297" x2="1763.634" y1="-56.656" y2="245.518" gradientUnits="userSpaceOnUse"><stop offset=".436" stop-color="#4f6cf5"/><stop offset=".732" stop-color="#4891f7"/><stop offset="1" stop-color="#44b0f9"/></linearGradient><linearGradient id="uuid-a9f81d35-d513-4c40-aeae-09b22f1c5563" x1="1844.56" x2="1568.102" y1="-26.18" y2="214.543" gradientUnits="userSpaceOnUse"><stop offset=".356" stop-color="#4f6cf5"/><stop offset=".48" stop-color="#4d74f5"/><stop offset=".677" stop-color="#498bf6"/><stop offset=".917" stop-color="#44b0f9"/></linearGradient><linearGradient id="uuid-31c15921-8c6a-4153-b18d-73ce4430a71c" x1="1746.373" x2="1675.412" y1="83.776" y2="176.616" gradientUnits="userSpaceOnUse"><stop offset=".19" stop-color="#4f6cf5"/><stop offset=".572" stop-color="#4891f7"/><stop offset=".917" stop-color="#44b0f9"/></linearGradient><linearGradient id="uuid-7bf541d1-51e7-4055-9e12-f75362bdf468" x1="1771.789" x2="1759.371" y1="43.768" y2="222.944" xlink:href="#uuid-31c15921-8c6a-4153-b18d-73ce4430a71c"/><linearGradient id="uuid-fb187f22-15fa-4c00-a773-93adbfe8ce25" x1="1798.689" x2="1818.425" y1="-1.071" y2="196.138" gradientTransform="translate(5.1541 277.8411) rotate(-8.7558)" gradientUnits="userSpaceOnUse"><stop offset=".315" stop-color="#4f6cf5"/><stop offset=".631" stop-color="#4891f7"/><stop offset=".917" stop-color="#44b0f9"/></linearGradient><linearGradient id="uuid-67429a20-9ffe-4aa0-9ec0-f7bba724923b" x1="1749.046" x2="1711.555" y1="99.688" y2="160.979" gradientTransform="translate(-26.3981 -53.8357) rotate(2.3001) scale(1.0136 .873) skewX(4.2755)" gradientUnits="userSpaceOnUse"><stop offset=".246" stop-color="#4f6cf5"/><stop offset=".642" stop-color="#4891f7"/><stop offset="1" stop-color="#44b0f9"/></linearGradient><linearGradient id="uuid-28f59dd0-46f4-4b3d-8cbb-f63bb78ba607" x1="1777.488" x2="1659.099" y1="-24.615" y2="195.933" gradientUnits="userSpaceOnUse"><stop offset=".3" stop-color="#4f6cf5"/><stop offset=".423" stop-color="#4c7af5"/><stop offset=".655" stop-color="#469ff8"/><stop offset=".748" stop-color="#44b0f9"/></linearGradient><linearGradient id="uuid-45e460d0-b41b-4731-aa9c-1994c03a3ba8" x1="1709.852" x2="1735.7" y1="181.79" y2="120.951" gradientUnits="userSpaceOnUse"><stop offset=".163" stop-color="#4f6cf5"/><stop offset=".603" stop-color="#4896f7"/><stop offset=".917" stop-color="#44b0f9"/></linearGradient><linearGradient id="uuid-d3e0ea70-1b14-48fa-8705-6b6d6e6ef509" x1="1799.086" x2="1675.388" y1="-54.848" y2="211.656" gradientUnits="userSpaceOnUse"><stop offset=".281" stop-color="#4f6cf5"/><stop offset=".344" stop-color="#4d75f5"/><stop offset=".581" stop-color="#4895f7"/><stop offset=".78" stop-color="#45a8f8"/><stop offset=".917" stop-color="#44b0f9"/></linearGradient><radialGradient id="uuid-391c3d20-9064-4098-93b7-8cb709d3c2d0" cx="99.866" cy="561.789" r="384.94" fx="99.866" fy="561.789" gradientTransform="translate(-319.1201 382.0682) rotate(-54.1302) scale(1 .7918)" gradientUnits="userSpaceOnUse"><stop offset=".558" stop-color="#8598e0" stop-opacity="0"/><stop offset=".65" stop-color="#8599e0" stop-opacity=".01"/><stop offset=".708" stop-color="#889de2" stop-opacity=".044"/><stop offset=".757" stop-color="#8ea5e5" stop-opacity=".102"/><stop offset=".8" stop-color="#95b0e9" stop-opacity=".184"/><stop offset=".841" stop-color="#9ebeee" stop-opacity=".29"/><stop offset=".878" stop-color="#aacff5" stop-opacity=".42"/><stop offset=".914" stop-color="#b7e4fd" stop-opacity=".571"/><stop offset=".92" stop-color="#bae8ff" stop-opacity=".6"/></radialGradient></defs><g isolation="isolate"><g id="uuid-6348f1b1-7300-448c-95cb-ed0954ec5ff9"><g id="uuid-0e02bc49-f17a-41dd-be9a-161620397259"><rect width="1920" height="574.001" x=".046" y="-.421" fill="#fff"/><path fill="#52b1ff" d="M1920.0426,282.3516c.02.5898.03,1.1899.05,1.79v62.7896c-.02.0103-.03.0303-.05.04v5.2002c-.01.02-.03.0303-.0399.0498-.01.0103-.02.0303-.02.04-.16.2202-.34.4502-.53.7002-10.59,13.5898-74.92,62.8101-133.39,79.9199-58.3199,17.0801-106.4199-.0801-120.7-5.79-130.3101-34.5498-210.01,149.9199-438.1101,77.8301,8.25,2.5703,16.3301,4.5801,24.26,6.0801.0601.0098.1301.0298.1902.04,28.2,5.29,54.45,4.0898,79.3999-1.7998,111.6201-26.2803,197.24-146.0605,314.36-195.3501,85.79-32.1401,168.5699-74.77,253.2001-74l20.34-.8999.45-.0103.55-.0298h.0399v43.3999Z" isolation="isolate" opacity=".21"/><path id="uuid-073af674-3d6c-41ad-91c9-a4152dca74ab" fill="url(#uuid-4b090b68-7cfa-4da2-89a3-13b05ec56764)" d="M807.0913,336.9705s-517.5863,35.677-527.2863,49.777c-93.1,136.2002,55.1863,217.3234,183.0863,153.2233,172.4-86.3001,313.8-104.3002,456.8-10.2,143.0001,94.1001-112.6-192.8003-112.6-192.8003Z" opacity=".5"/><path fill="url(#uuid-5d6af88f-f951-4fe2-a918-86c058de872c)" d="M1920.0927,284.1417v62.7896c-.02.0103-.03.0303-.05.04-.01.0103-.03.0205-.0399.0303-.1801.1401-.37.27-.55.4102-4.9401,3.71-9.76,7.2397-14.47,10.6099h-.01c-.53.5298-5.36,4.0801-12.9501,9.1597-.3899.2705-.7999.54-1.21.8203-17.6499,11.75-48.8,30.8701-76.34,40.8901-49.0599,17.7798-85.8099,10.9897-128.9401-4.3203-63.8699-22.71-121.3099,25.2402-198.95,63.5103l-.01.0098c-10.71,5.2803-21.8101,10.3799-33.3699,15.0801-.0601.02-.1101.0498-.1702.0601-.02.0103-.0398.02-.0701.0298-20.7798,8.4502-43.0398,15.6104-67.1699,20.2603-.01,0-.03.0098-.04.0098-18.6699,3.6001-36.77,5.4302-54.6499,5.7104-29.97.4897-59.29-3.3604-89.53-10.4604-.1899-.0498-.3801-.1001-.5798-.1396-1.5701-.3701-3.1501-.75-4.7302-1.1499-2-.4902-4.0198-1-6.03-1.5205l.1001-.0996c5.22-2.6699,10.4199-5.3203,15.6201-7.96,2.45-1.25,4.8899-2.4902,7.3298-3.7202.0901-.0498.1799-.0898.26-.1299,16.6301-8.4399,33.1401-16.7402,49.49-24.8901,77.23-38.5098,150.8401-73.7002,216.3-103.7002,4.48-2.04,9.03-4.0996,13.6299-6.1899,42.4102-19.21,89.5601-40.0898,131.4702-57.4097l1.2-.5c29.48-12.27,61.4199-24.7803,61.6899-24.7803,41.0701-15.8101,148.47-56.4399,191.51-49.2197h-.1c0,.0698-.1801.0498.27,21.6201.11,5.25.2599,11.7598.45,19.8696.15,6.2803.34,13.52.55,21.8599.0199.54.0299,1.0801.0399,1.6304.02.5898.03,1.1899.05,1.79Z" opacity=".5"/><path fill="url(#uuid-fd2eddfe-7469-46cd-8a06-2dfc1ee42eef)" d="M1920.0052-.6427v352.8606c-4.8,2.62-11.5,6.31-15.1099,8.33,0,0-.03.0099-.04.02-7.3897,4.1112-48.553,28.5504-104.95,30.1001-21.4397.5891-42.51-2.6401-62.0601-10.6901h-.02c-41.2581-13.61-54.5598-49.3582-75.23-51.6201-6.592-.7213-22.2276-2.2275-38.8601,19.6-25.4823,33.4413-71.0379,71.3594-105.8198,95.8301-.01.01-.02.02-.03.02-30.6201,21.5501-60.9102,39.1102-82.6001,47.1501-15.0698,5.6-32.1599,10.76-49.5801,15.09-.0098,0-.0298.01-.0398.01-15.8601,3.95-71.6313,18.7749-125.4401,6.7901-.0699-.02-.15-.03-.2201-.04-.0299-.01-.0699-.02-.0999-.03h-.04c-89.6901-18.0399-174.1201-72.3001-254.51-3.02-16.9,14.5-19.6001,47.6002-18.5,63.6002h-29.9c-89-94.2001-223.51-126.2002-352.42-103.2001-.1-.1001-.6-.4001-.5-.3-50.7,9.2-76.2,20.5-122.6,36.3001-84.1638,25.2513-203.1292,40.1751-220.5-45.8602-3.936-19.5033-2.1353-31.7744,2.58-44.68v-.01c5.1507-13.8524,13.2548-25.7347,22.9401-36.6501q.01,0,.01-.01c1.67-1.89,21.2509-21.7053,25.2799-27.12,0,0,.01,0,.01-.01,3.2403-4.3199,4.9926-8.5787,1.1901-12.38-3.7341-3.794-10.235-5.67-10.58-5.67C246.2026,317.7053,45.9709,390.4378.0053,322.0578V-.6427h1919.9999Z"/><path fill="url(#uuid-f3cad162-1f85-4413-8fe7-117ba1d02e49)" d="M1920.0052-.6427v352.8606c-4.8,2.62-11.5,6.31-15.1099,8.33,0,0-.03.0099-.04.02-7.3897,4.1112-48.553,28.5504-104.95,30.1001-21.4397.5891-42.51-2.6401-62.0601-10.6901h-.02c-41.2581-13.61-54.5598-49.3582-75.23-51.6201-6.592-.7213-22.2276-2.2275-38.8601,19.6-25.4823,33.4413-71.0379,71.3594-105.8198,95.8301-.01.01-.02.02-.03.02-30.6201,21.5501-60.9102,39.1102-82.6001,47.1501-15.0698,5.6-32.1599,10.76-49.5801,15.09-.0098,0-.0298.01-.0398.01-15.8601,3.95-71.6313,18.7749-125.4401,6.7901-.0699-.02-.15-.03-.2201-.04-.0299-.01-.0699-.02-.0999-.03h-.04c-89.6901-18.0399-174.1201-72.3001-254.51-3.02-16.9,14.5-19.6001,47.6002-18.5,63.6002h-29.9c-89-94.2001-223.51-126.2002-352.42-103.2001-.1-.1001-.6-.4001-.5-.3-50.7,9.2-76.2,20.5-122.6,36.3001-84.1638,25.2513-203.1292,40.1751-220.5-45.8602-3.936-19.5033-2.1353-31.7744,2.58-44.68v-.01c5.1507-13.8524,13.2548-25.7347,22.9401-36.6501q.01,0,.01-.01c1.67-1.89,21.2509-21.7053,25.2799-27.12,0,0,.01,0,.01-.01,3.2403-4.3199,4.9926-8.5787,1.1901-12.38-3.7341-3.794-10.235-5.67-10.58-5.67C246.2026,317.7053,45.9709,390.4378.0053,322.0578V-.6427h1919.9999Z"/><path fill="url(#uuid-ecbb415f-5811-4365-ac50-43250d0f3368)" d="M959.8029,573.3619h-2.8098c-48.79-51.6402-111.2603-84.59-178.9802-100.03.03.0098.05.0098.0801.0098-19.9399-6.6299-62.0601-17.5498-117.05-22.8301-.01-.0098-.01,0-.02,0-70.24-6.7598-162.5498-5.4697-260.2998,21.6104-3.3901.9399-6.7402,1.7998-10.05,2.5698-71.1602,16.7901-112.02,20.8101-129.5901-21.6802-1.1599-2.8096-1.8999-8.6699-2.1499-13.1597.2798-8.2402,1.7798-16.4502,4.6199-24.23v-.0103c6.1903-16.6639,16.0136-29.4112,27.96-42.15q.01,0,.01-.0098c.8301-.8701,1.6501-1.7305,2.46-2.5801,0,0,.0103,0,.0103-.0103,7.7397-8.0498,13.7898-13.6597,17.7898-19.0298,0,0,.01,0,.01-.0103,3.3-4.4097,4.9199-8.6499,1.1899-12.3799-3.73-3.7998-10.2397-5.6699-10.5798-5.6699-27.98-8.0103-91.4402,5.9898-154.03,13.6402-.25.04-.5.0698-.76.0996-7.5801.9199-15.1501,1.75-22.6301,2.4302-40.8699,3.77-102.1599,6.0103-124.9399-27.8799.0012-9.0635.0024-18.1265.0037-27.19,29.021-34.6324,78.2932-82.9723,151.9041-113.0642,162.3774-66.379,367.343-12.959,381.7571,58.527,12.3445,61.2218-118.3438,119.4631-101.0923,158.2898,14.5442,32.7339,111.949,6.8618,219.2576,14.3872,75.5032,5.2949,182.4517,36.7642,307.9299,160.3504Z" opacity=".5"/><path fill="url(#uuid-fe9ffc49-665e-4e84-9a95-99e96cd53747)" d="M1920.0443,153.5865v198.6299c-.5247.2688-10.5864,5.8012-15.11,8.3301h-.01c-.01.02-.0199.02-.0299.02-4.657,2.6456-13.0403,7.5537-22.4706,11.6754,0,0-19.6251,8.8331-30.1583,10.6811-37.3421,10.7855-78.0584,12.0242-114.4212-2.9463h-.02c-41.26-13.6099-54.5601-49.3599-75.23-51.6201-6.5901-.7202-22.23-2.23-38.8601,19.6001-25.48,33.4399-71.0398,71.3599-105.8201,95.8301-.0098.0098-.0198.02-.0298.02-30.6201,21.5498-60.9102,39.1099-82.6001,47.1499-17.9052,6.6538-35.2568,11.4369-52.6799,15.8701-8.755,2.1732-28.3504,6.23-29.1399,6.23-.0103.0098-.02.0098-.0303.0098-24.4685,4.5161-40.9003,6.2172-67.6899,3.6099-7.7937-.6831-22.7357-3.0554-23.3799-3.3696-.0531-.0097-2.3827-.4912-2.4199-.5303h-.04c-93.5757-18.7752-174.5781-71.8433-254.51-3.02-16.9001,14.5-19.6001,47.6001-18.5,63.6001h-27.99c.1099-.1899.21-.3799.3198-.5698,33.96-59.9702,86.0801-113.2803,145.2002-127.8701,69.8298-17.25,112.48,14.77,198.6099,14.25,19.27-.1001,40.72-1.8501,65.1401-6.1401,20.9299-3.6699,75.4299-14.7998,124.5798-56.0698,21.655-18.1767,39.6616-32.5303,40.9099-52.8701,3.4702-54.73-110.6799-85.5698-104.75-133.02,2.5-20.0601,25.1101-32.3999,36.1501-38.4399,123.23-67.3701,286.75,98,405.79,29.79,13.7-7.8501,31.9199-21.71,48.6-47.9102.1901-.2798.37-.5698.5499-.8599.01-.02.03-.04.04-.0601Z" opacity=".5"/><g id="uuid-6f04187f-3f59-4b54-acd5-3b953b57bd00"><path id="uuid-adbdb9a9-6924-46f5-bd64-3e00592e6e93" fill="#52b1ff" d="M774.2394,507.2666c-22.7-1.7-39,4-63.3,20-38.3-12.7-45-32.9001-45-32.9001,30.3-26.1001,91.1-18.4,105.2-13.5-.1,11.9,3.1,26.4,3.1,26.4Z" isolation="isolate" opacity=".31"/><g id="uuid-7f983090-60d1-4cfc-af69-5c6b1f0ca1da"><path id="uuid-6b32a973-b537-4109-81ff-5308a6fbb1b7" fill="#7ac3ff" d="M1220.7394,458.5665c.8-.6,1.9-.5,2.5.3h0c6.2,8.1,21.2,25.6,27.6,23,.9-.4,2,0,2.4.9.2.4.2.8.1,1.2-3.4,13.4-18.8,18.7-32.1,21-16.8,2.9-34.3,3.1-47.3.3-.3-.1-.7-.2-.9-.5-6.9-6.7-9.6-18.7-10.5-23.6-.2-1,.5-2,1.5-2.1,21.6,0,39.3-7.5,56.7001-20.5Z" isolation="isolate" opacity=".31"/><path id="uuid-dcad0153-04cb-4935-b4ea-cd78e78e83e4" fill="#d4e7ec" d="M1203.5394,507.4666c22.3-1.4,39.1-9.2,47.8-29,6.9,7.1-.7001,26.3-47.8,29Z" isolation="isolate" opacity=".5"/></g></g></g><path fill="url(#uuid-9d4ff17c-0cdf-4eba-9ec3-aa10667bd826)" d="M227.2516,281.2549l18.6186.3673c4.2244-8.1092,4.152-17.5986,7.1869-26.0962,2.8533-7.8707,8.3679-14.5674,11.8604-22.1012.9307,6.0053,1.346,12.1186,2.0131,18.1684.0341,1.3006.9991,2.4918,2.239,1.5791,9.9122-5.2361,18.726-12.3959,26.071-20.8436-1.3172,8.5439-3.3128,16.9881-6.3961,25.2425-.9547,2.9276-1.7561,6.7065.6591,8.6173,31.7464,7.04,69.1895-16.8974,75.4914-49.1222,2.799-16.1187,9.5521-34.0198-.7326-49.0476-11.066-15.384-31.2394-15.3385-47.1984-7.1963-2.3633-9.4377-7.0709-18.3638-14.4406-26.0214-10.1825-12.3273-34.6733,3.4422-47.5723,18.581.2145-1.4529.6575-2.9446,1.3819-4.4649-9.5202-16.3952-44.3063,8.7233-49.3335,21.4-26.0548,52.1829,22.9114,71.121,20.152,110.9378Z"/><path fill="url(#uuid-7811870a-db93-43f1-9219-24ac7affec21)" d="M239.7227,281.5008c4.7226-8.0348,3.2557-16.9728,6.4064-25.5959,4.4459-11.4077,14.0316-20.4563,16.5164-32.7214,5.0343-14.9377-7.5241-30.4752-.3413-40.9992,8.1862-9.8581,42.4533-12.8951,52.1146-3.7962,3.0115,2.2266,4.9343,5.6137,7.9406,7.8471,4.9319,3.2536,11.4254,3.8011,15.6224,8.2797,13.6534,12.7898,10.0576,35.3082-.855,48.9399-3.6235,5.0145-10.2593,9.1271-13.07,14.2683,19.4013-6.8271,25.5612-31.2546,42.2913-42.0188,2.7296-1.6194,5.6451-3.527,6.2463-6.882.9328-6.9506.4173-17.7551,10.9225-12.887,23.6999,24.5876,8.4301,78.5693-24.6171,93.2286-.2899,0-23.4491,10.3292-23.6535,10.6441.0206-.0519-89.403-18.1405-89.376-18.1859l-6.1475-.1213Z"/><path fill="url(#uuid-fc27fb36-ff98-4d30-a2a2-4a5904a96361)" d="M349.7846,175.1531c-11.2457-15.634-36.2682-7.9281-45.0719,6.6068-.4829,18.2174.1305,37.0002-6.4189,54.5344-.6518,1.9988-1.199,4.5787.45,5.8834,21.674,4.8064,47.2386-11.5365,51.541-33.5377,1.911-11.0049,6.5216-23.2267-.5001-33.4868Z"/><path fill="url(#uuid-8317203c-a7b9-45a3-9958-4acd6377fe86)" d="M307.7472,145.7024c-9.4577-11.1073-35.5329,11.3753-37.9664,22.0177-3.9188,13.8273,6.9818,26.0294,10.7681,38.6395,1.836,6.1731,2.1234,12.6798,2.8294,19.0813.0591.5359.2366,1.2003.7686,1.2875,27.9015-13.5353,48.1643-55.5934,23.6003-81.0259Z"/><path fill="url(#uuid-80248f51-7f13-4be4-91df-bc3de84c28fd)" d="M268.0822,160.4016c.9883.5158,1.8534,1.2753,2.3732,2.2722-1.5784,5.252.8709,9.3678,5.2885,11.7148,2.5908,2.421,1.9775,6.5586,2.1253,10.1016.4146,9.9367,8.2999,18.5574,8.0663,28.4999-.1806,7.6877-5.1922,14.4242-6.6791,21.9689-.1053,18.5504-5.3571,33.298-24.7205,39.5497,5.8666-3.9667-1.4788-18.9827-1.4788-18.9827,2.2117-16.6361-2.1774-24.6028-9.9211-37.4306-14.3843-20.5805-2.0954-58.4098,24.9463-57.6939Z"/><path fill="url(#uuid-ca687fe7-7696-434d-98a1-0bba526898fd)" d="M334.7664,188.3071c-.568,2.558,1.9258,6.3437,1.1839,8.8573-.6029-1.014-1.2058-2.0281-1.8087-3.0421-.5273.4517-1.0546.9033-1.5819,1.355-.77-.8859-2.0634-1.2385-3.1786-.8664,4.5069-9.1665-3.9664-15.639-8.4444-4.7269-.0839-.6931.1349-3.3613.0511-4.0544-7.0335,3.1243.7951-5.07-2.0328-6.217-1.5942-.5977-4.8281,4.5979-6.0066,3.3448-.7003-.7446.0762-1.9406.4802-2.9153.9188-2.2169-.5193-4.8602-2.6026-5.8409-7.1917-2.3505-15.0857,5.1767-19.06,11.2425,7.4-.9565,17.4003-1.8176,24.6209,2.6983,4.0528,2.6877,7.0027,6.9651,11.2808,9.2584,2.1181,1.1354,4.4912,1.7412,6.5427,2.9978,2.9926,1.8331,6.2798,8.6227,7.4893,1.3229.7124-4.2998.2863-11.7133-6.9332-13.414Z"/><path fill="url(#uuid-ec424b5f-fb3b-499d-8edc-33a095f20134)" d="M249.8359,274.1612c27.0335-14.726,15.6781-21.7874,26.1526-40.3983,13.0367-19.0196,7.6416-21.2145,6.23-40.4838,1.8176-10.406,28.1713-11.0067,35.3634-6.0368,4.4771,3.4485,7.6765,7.1419,13.6476,8.3669,10.531,4.8167,12.6695,19.6887,7.5063,29.4881-2.3927,6.6798-9.0978,11.0229-12.8978,16.4325,13.2567-4.6654,17.341-21.2231,28.8734-28.6913,6.8679-2.5625,2.7031-10.1409,6.7388-13.6685,5.1735-2.726,8.6733,3.993,10.5456,7.8597,5.9935,12.5683,5.6351,28.7454-1.8181,40.5454-31.1989,37.6735-59.5583-2.8426-91.4058,27.1572l-28.936-.5708Z"/><path fill="url(#uuid-b66330d3-b7c2-4290-8abf-4c23c485dd47)" d="M334.7664,188.3071c-.4428,2.0227-.958,4.0296-1.5442,6.0155-.505-.8096-1.01-1.6192-1.515-2.4288-.4291.3531-.8583.7063-1.2874,1.0594-.6411-.7096-1.7074-1.0013-2.6204-.7167,3.6875-7.1249-3.5331-12.4096-6.9843-3.8269-.0754-.5503-.1508-1.1006-.2263-1.6509-5.7347,2.3965-.3147-3.7691-2.6267-4.8959-1.3159-.4888-2.797,1.9849-3.7772.9803-.5825-.5969.0444-1.5378.3673-2.3069.349-10.5809-16.0877-1.703-18.5927,3.8579,15.1026-.7385,19.461,1.0227,30.4573,10.039,1.752.919,4.825,1.0764,6.5228,2.0919,3.436,1.9498,3.8026,5.3849,5.0506,1.4643.5451-3.4024-.8145-7.2681-3.2237-9.6822Z"/><path fill="url(#uuid-f95fb8c2-5873-4c0c-ab84-430583f82ab8)" d="M258.8358,281.8789c11.6633-19.3685-1.3289-53.373,23.2789-62.7951,8.5578-8.2204,12.9253-11.5291,23.6059-10.5285,2.1895.2,4.2744,1.083,5.9435,2.5132,19.2275,16.4917,28.7463,4.2295,32.7221,14.4991,5.7191,15.8791-3.9468,29.3635-19.8661,43.2048-4.1454,3.6043-18.6746,10.0321-22.5582,13.9573l-43.1262-.8507Z"/><g id="uuid-a3c895a6-c1ba-4d8d-b746-abd7e3465822"><g id="uuid-b0fe0b65-14c3-4548-832e-95a53965bb72"><path fill="#67ace5" d="M371.5744,479.7364c-59.3401,12.75-94.3599,12.4204-110.27-26.0601-1.1599-2.8096-1.8999-8.6699-2.1499-13.1597.2798-8.2402,1.7798-16.4502,4.6199-24.23v-.0103c5.1599-13.8901,13.1799-25.6597,22.9402-36.6499q.0098,0,.0098-.0098c1.6702-1.8901,3.3501-3.7202,5.01-5.4902q.01,0,.01-.0098c.8301-.8701,2.4702-2.5801,2.4702-2.5903,7.7397-8.0498,13.7898-13.6597,17.7898-19.0298,0,0,.01,0,.01-.0103,3.3-4.4097,4.9199-8.6499,1.1899-12.3799-3.73-3.7998-10.2397-5.6699-10.5798-5.6699-47.047-13.4689-193.9683,35.0797-268.02,11.6997.3499-.9697.78-1.9697,1.28-3,40.2-91.7998,147.2998-133.5996,239.0999-93.2998,89.3141,39.1071,130.4964,141.1366,96.5901,229.8999Z"/><path fill="url(#uuid-14be68cc-df84-436c-b693-12886091e614)" d="M371.5744,479.7364c-59.3401,12.75-94.3599,12.4204-110.27-26.0601-1.1599-2.8096-1.8999-8.6699-2.1499-13.1597.2798-8.2402,1.7798-16.4502,4.6199-24.23v-.0103c5.1599-13.8901,13.1799-25.6597,22.9402-36.6499q.0098,0,.0098-.0098c1.6702-1.8901,3.3501-3.7202,5.01-5.4902q.01,0,.01-.0098c.8301-.8701,2.4702-2.5801,2.4702-2.5903,7.7397-8.0498,13.7898-13.6597,17.7898-19.0298,0,0,.01,0,.01-.0103,3.3-4.4097,4.9199-8.6499,1.1899-12.3799-3.73-3.7998-10.2397-5.6699-10.5798-5.6699-47.047-13.4689-193.9683,35.0797-268.02,11.6997.3499-.9697.78-1.9697,1.28-3,40.2-91.7998,147.2998-133.5996,239.0999-93.2998,89.3141,39.1071,130.4964,141.1366,96.5901,229.8999Z" opacity=".5"/><path fill="none" stroke="#ececec" stroke-dasharray="67.04 4.79 1.92 4.79 33.52 4.79" stroke-linecap="round" stroke-miterlimit="10" stroke-width="2" d="M381.5849,390.4355c27.2-46.5,41-88.6,24.7-104.9-19.9315-19.9315-66.9741,1.0495-92,14.7h0c-9.9501,5.2677-28.5009,16.5823-45.9,29.2" isolation="isolate" opacity=".25"/><path fill="url(#uuid-f6deaee8-689d-472a-94e0-450282308691)" d="M200.0849,310.4355c-2.2,8.9-2.5,19.4-1,30.2-41.3,6-117.2,18.6-157.9,7,17.3-27.4,43.4-47.5,69.5-59.5,41.2-19,82.6-18.1,89.6,5.3,1.4,4.8,1.5,10.4-.2,17Z" opacity=".5"/><path fill="url(#uuid-f7193b0a-2f26-461d-953c-3f9aa107d10c)" d="M383.2533,419.1528c-.6311,36.0468-11.8554,70.7632-33.7699,101.7799-6.5-.5-13.2001-1.2999-20.2001-2.2-52.2928-4.3815-91.487-63.4967-56.1199-121.1699,6.8199-3.1401,13.1699-7.23,18.8199-12.03,18.1-14.9,38.5-21.2,55.4-18.6,20.685,3.1902,36.4496,19.2097,35.8699,52.22Z" opacity=".5"/><path fill="url(#uuid-e7be143b-335b-4d0f-8f97-79331657928c)" d="M49.9849,349.5355c41.2-46.7,109.8-49.9,96.1-1.5-34.7,4.2-68.7,6.4-96.1,1.5Z" opacity=".5"/><path fill="url(#uuid-d61a6c6e-39a3-4786-a52b-339e0a7bb3d4)" d="M349.5682,522.3765c-2.9-.3-6.4613-.4335-20.8117-2.7684-38.4595-6.2577-60.2716-32.1726-66.8716-62.1726.1-.1,21.1-21.2,47.9-33.3,21.8-9.7,42.4-10.6,48.1,12.2,2.1,8.1,3.4,16.4,4,24.7,1.9,24.1999-3.9167,43.4409-12.3167,61.3409Z" opacity=".5"/><path fill="url(#uuid-391c3d20-9064-4098-93b7-8cb709d3c2d0)" d="M371.5744,479.7364c-59.3401,12.75-94.3599,12.4204-110.27-26.0601-1.1599-2.8096-1.8999-8.6699-2.1499-13.1597.2798-8.2402,1.7798-16.4502,4.6199-24.23v-.0103c5.1599-13.8901,13.1799-25.6597,22.9402-36.6499q.0098,0,.0098-.0098c1.6702-1.8901,3.3501-3.7202,5.01-5.4902q.01,0,.01-.0098c.8301-.8701,2.4702-2.5801,2.4702-2.5903,7.7397-8.0498,13.7898-13.6597,17.7898-19.0298,0,0,.01,0,.01-.0103,3.3-4.4097,4.9199-8.6499,1.1899-12.3799-3.73-3.7998-10.2397-5.6699-10.5798-5.6699-47.047-13.4689-193.9683,35.0797-268.02,11.6997.3499-.9697.78-1.9697,1.28-3,40.2-91.7998,147.2998-133.5996,239.0999-93.2998,89.3141,39.1071,130.4964,141.1366,96.5901,229.8999Z"/></g><path fill="#fff" d="M778.3142,474.0114c-111.4399-21.06-187.513-.7517-234.8831,16.0783-129.5355,46.0118-272.6527,103.1819-285.0936-45.7191-.1678-2.0081.3729-5.4503.7359-7.8478-.1276,4.0458.6674,13.3696,2.231,17.1522,17.5659,42.4946,58.4306,38.4735,129.5867,21.6847,3.3101-.77,6.6602-1.63,10.0503-2.57,97.75-27.08,190.0601-28.37,260.2998-21.61.0103,0,.0103-.01.02,0,54.9902,5.28,97.1131,16.2017,117.053,22.8317Z"/></g><g id="uuid-f1cf60ea-53d5-45a0-84f7-2fb5f69f0aed"><path id="uuid-96a6d33f-3279-41d9-bac6-967b3a5d8f0c" fill="#eee" d="M1524.7863,116.2865c-33.5,2-84.2,14.2-109.7,31.8,10.6,29.6,44.3,61.1,79.1,81.2l11.6-11.9-6.4,14.7c15.2,8.5,28.5,13.8,42.1,16.8,23.5-7.7,50.8-47,50.8-47-28.5-12.7-59.7-41.5-67.5-85.6h0Z" isolation="isolate" opacity=".3"/><path id="uuid-b2f5ccd3-0b39-40de-92aa-5faae6dc2a90" fill="#eee" d="M1436.5862,149.2866c17.5-6.4,55.6-17.7,72.6-21.2,2.5-.5,5,1,5.8,3.4v.1c.9,2.7-.7,5.6-3.5,6.4-14.7,3.9-55.9,15-70.3,22.1-2.6,1.3-5.8.5-7.5-2-.1-.1-.1-.2-.2-.3-1.8-3-.4-7.2,3.1-8.5Z" isolation="isolate" opacity=".15"/><path id="uuid-5de672fa-fe91-49fe-90f7-7d14e47c1a7a" fill="#eee" d="M1443.2863,165.9865c12-5.3,69-24.3,73.3-24.7,2,5.3,14,26,16,27.3-5.3,3.3-33,16.3-35.7,19l-2.2-2.7c-7-8.8-18.2-13.2-29.4-11.6-6.7.9-12.8,2-13.4,2.7-3.6-3.6-8.6-10-8.6-10Z" isolation="isolate" opacity=".15"/><path id="uuid-ebd86db5-681d-42a0-95c0-de8467c3e4a9" fill="#eee" d="M1533.6862,171.3866c3,4.3,27.8,26.7,40.2,33.7-4.7,8.3-29,28.7-31.3,30.3-13.3-2.9-29-12-29-12l6.7-7-19-25.2,32.4-19.8Z" isolation="isolate" opacity=".15"/><g id="uuid-ad92a641-7671-4fb7-bb72-7e8f29d0dfdd" opacity=".15"><path id="uuid-02690100-f8bf-4ebb-93d0-205cf0988216" fill="#eee" d="M1415.0862,148.1865c2.5,6.5,5.8,12.6,9.6,18.4,3.8,5.8,8.1,11.2,12.7,16.4,9.2,10.3,19.6,19.6,30.6,28,11,8.4,22.7,15.9,34.9,22.3,12.2,6.4,25.1,11.9,38.5,15h-.4c5.4-1.8,10.4-4.9,15.1-8.3,4.6-3.5,9-7.4,13.1-11.5,4.1-4.1,8.1-8.4,11.9-12.8,3.8-4.4,7.5-9,10.9-13.7l.1.1c-3.4,4.8-7,9.4-10.7,13.9-3.7,4.5-7.6,8.8-11.8,13-4.1,4.1-8.4,8.1-13.1,11.6-4.7,3.5-9.7,6.7-15.2,8.6h0c-13.6-3.1-26.5-8.5-38.8-15-12.3-6.5-24-14-35-22.5s-21.3-17.9-30.5-28.3c-4.6-5.2-8.8-10.7-12.6-16.6-3.7-5.9-7-12.1-9.3-18.6h0Z"/></g><g id="uuid-9f976d44-3d2b-465d-88ee-eed5c463674c"><path id="uuid-22888400-9611-4ae3-ab52-7e5fefeee9f2" fill="none" stroke="#eee" stroke-linecap="round" stroke-linejoin="round" stroke-width="1.999" d="M1452.3863,210.6865c-8.7-7.3-13.4-18.6-4.1-24.7,7.4-4.8,22,1.6,28.6,8.8" isolation="isolate" opacity=".15"/><path id="uuid-af345cd7-e9ed-4c08-a692-8265f8151754" fill="#eee" d="M1483.8863,188.5865c-1-1.1-2.6-1.4-3.9-.6-1.7,1-4.3,2.6-7.4,4.6l3.8,3.4-7-1.3c-8.7,5.8-19.9,13.4-26.8,17.9-1.6,1.1-1.9,3.3-.6,4.7,15.8,17.2,37.4,21.8,40.3,22.1,1.5.2,20.5-18.4,23.4-21.8-4.6-6.5-10.6-16.5-21.8-29Z" isolation="isolate" opacity=".15"/><g id="uuid-d00b1bcd-716d-4e4f-b911-9f64f98c3a4b" opacity=".15"><path id="uuid-2d6d0062-1f73-4f94-9990-c34745aa56e7" fill="#fff" d="M1504.3863,219.0866c-4.5,4.6-9,9-13.7,13.4-2.3,2.2-4.7,4.4-7.2,6.3-.3.2-.6.5-1.1.6-.4,0-.8-.1-1.2-.2-.8-.1-1.6-.3-2.3-.5-1.5-.4-3.1-.8-4.6-1.3-3-1-6-2.1-8.9-3.5-1.5-.6-2.9-1.4-4.3-2.1-1.4-.8-2.8-1.5-4.1-2.4-5.4-3.4-10.5-7.4-14.8-12.1l.1-.1c1.2,1.1,2.3,2.2,3.5,3.2l1.8,1.5c.6.5,1.2,1,1.9,1.5,1.3.9,2.5,1.9,3.9,2.8.7.4,1.3.9,2,1.3l2,1.2c.7.4,1.4.8,2.1,1.2l2.1,1.1c1.4.7,2.8,1.4,4.3,2,2.9,1.3,5.8,2.4,8.8,3.4,1.5.5,3,.9,4.5,1.3.8.2,1.5.4,2.3.5.2,0,.4.1.6.1h.5-.2.1s.1-.1.2-.1c.1-.1.3-.2.4-.3,2.5-1.8,4.8-4.1,7.2-6.1,2.4-2.1,4.7-4.3,7.1-6.4,2.2-2.1,4.6-4.2,7-6.3h0Z"/></g></g><g isolation="isolate"><path fill="#c4f9ff" d="M1415.0862,148.1865c22.3788-14.1607,48.184-22.105,73.9574-27.4368,11.6215-2.2802,23.9346-3.8302,35.7071-4.8888,0-.0002.3872-.0407.3872-.0407l.0701.3984c1.4191,7.9963,3.6427,15.892,6.534,23.4897,2.9106,7.6112,6.6033,14.956,11.5286,21.477-5.0692-6.4189-9.0148-13.6845-12.0381-21.2773-3.0026-7.6244-5.3749-15.4823-6.8681-23.5537,0,0,.4571.3579.4571.3579-9.3592.94-19.2448,2.0242-28.5132,3.7222-28.1848,5.047-56.4311,13.1044-81.2222,27.7519h0Z"/></g><g opacity=".8"><path fill="url(#uuid-b3842e28-6103-4bd1-ac85-32a02cb8ddcd)" d="M1487.1559,216.0026c-.7227-.9971-2.1809-1.6831-3.7935-2.1157,1.3386-.6812,2.5542-1.6685,3.312-2.958,2.324-3.9556-3.5964-6.9673-6.9929-4.3979-.6306.4771-1.156,1.0093-1.5923,1.564-.3357-4.1138-3.4875-7.3945-5.2974-6.9629-2.6377.6284-4.4395,2.3179-3.6404,5.9575.1633.7437.459,1.4365.8369,2.0771-.9397-.1592-1.9658-.2153-3.0732-.1216-6.0569.5122-3.2754,6.105.375,7.1768.322.0947.6592.1567,1.0015.2041-.4268.4268-.8516.9043-1.2688,1.4473-3.531,4.5952,3.5312,5.4785,6.3289,3.2627.1577-.125.3081-.2593.4548-.3979.2478,1.0508.6785,2.1021,1.2993,3.0537,2.4897,3.8154,6.1814,1.9214,6.1931-2.7769.001-.4146-.0322-.8062-.0801-1.187.5664.2749,1.1514.4751,1.7395.5542,3.4065.4585,6.3313-1.4346,4.1975-4.3794Z" mix-blend-mode="overlay"/><path fill="url(#uuid-58d1daac-8ad8-42f5-b968-fea3657ea10f)" d="M1477.4925,212.7938c.9432.7938,1.1373,1.8958.4336,2.4616-.7037.5657-2.0388.3809-2.982-.4129-.9432-.7938-1.1373-1.8958-.4336-2.4616s2.0388-.3809,2.982.4129Z" mix-blend-mode="overlay"/></g></g><path fill="#f7fcff" d="M1253.5644,484.6363c-3.0801,12.1304-15.98,17.6201-28.27,20.2603-20.74-5.8198-41.2-12.48-61.3999-17.9302-.53-2.0498-.8901-3.8398-1.1301-5.1299-.2-1,.5-2,1.5-2.1001,21.6001,0,39.3-7.5,56.7002-20.5.7998-.6001,1.8999-.5,2.5.3003,5.7798,7.5498,19.1997,23.2598,26.1799,23.2598.51,0,.98-.0801,1.4199-.2598.9001-.4004,2,0,2.4001.8999.1997.3999.1997.7998.0999,1.1997Z" isolation="isolate" opacity=".68"/><path fill="url(#uuid-42a13501-74ea-4fb2-a932-338b24e31bcb)" d="M778.3142,474.0114c-111.4399-21.06-187.513-.7517-234.8831,16.0783-129.5355,46.0118-272.6527,103.1819-285.0936-45.7191-.1678-2.0081.3729-5.4503.7359-7.8478-.1276,4.0458.6674,13.3696,2.231,17.1522,17.5659,42.4946,58.4306,38.4735,129.5867,21.6847,3.3101-.77,6.6602-1.63,10.0503-2.57,97.75-27.08,190.0601-28.37,260.2998-21.61.0103,0,.0103-.01.02,0,54.9902,5.28,97.1131,16.2017,117.053,22.8317Z" opacity=".5"/><g id="uuid-8715788a-6f6f-47ef-95f2-7d02d14887cc"><path id="uuid-a697bd24-c64f-4bb7-a607-154353c92419" fill="#eee" d="M174.0223,131.2356l-25.7188-4.3483,25.2889.7617c-1.7896-14.8706-5.6045-35.4697-13.7449-46.5707-37.9139-16.3359-121.7119-10.4298-142.6455,8.9735,10.4385,27.5141,41.4046,63.3607,68.2525,86.594,33.7423-29.9361,62.8152-36.476,89.6104-31.4564.0105-.0719-.1864-5.7533-1.0427-13.9538Z" isolation="isolate" mix-blend-mode="screen" opacity=".3"/><path id="uuid-8001e780-0875-431f-9ca0-e6149c159dce" fill="#eee" d="M35.0933,100.348c-2.8577-2.5468-1.7836-7.3817,1.9695-8.4479,62.5085-18.3148,99.6628-8.33,110.7121-7.0813,1.7355.1804,3.0872,1.4792,3.3486,3.2059h0c.3105,2.3946-1.5352,4.4738-3.9386,4.3426-15.2214-.8311-59.5679-7.3162-107.0096,8.8707-1.6969.5594-3.5761.358-5.0207-.8076,0,0,.0105-.0719-.0614-.0824Z" isolation="isolate" opacity=".15"/><path id="uuid-43d92252-1836-4178-b788-c7f529a84531" fill="#eee" d="M38.2371,106.4604c45.1386-12.4861,97.5188-9.2309,97.5188-9.2309,0,0-8.6064,8.652-3.9245,21.8166-21.9302-.6376-68.1198,19.0359-68.1198,19.0359l-25.4744-31.6216Z" isolation="isolate" opacity=".15"/><path id="uuid-3664c1cc-c784-4b67-b2ed-af153cf982cd" fill="#eee" d="M119.6434,142.1502c6.7172-2.7617,13.9674-5.1518,21.1108-6.3095-5.2244-4.4346-8.9943-13.7952-8.9943-13.7952-4.7997.6929-13.7433,2.6152-21.6929,5.27l9.5764,14.8347Z" isolation="isolate" opacity=".15"/><path id="uuid-8e9c6d32-79b9-45d6-9953-b773986723c5" fill="#eee" d="M105.5548,128.0505c-17.0282,4.9978-37.3762,13.6212-37.3762,13.6212l18.3156,18.8289s14.6103-10.0497,30.5776-17.3316l-11.5171-15.1185Z" isolation="isolate" opacity=".15"/><g id="uuid-99d719dc-2462-4723-844c-01b60ee04c7d" opacity=".15"><path id="uuid-28ef9ae6-eeeb-4f49-a227-4ad6ecc7691f" fill="#eee" d="M159.8475,81.0783c1.6568,2.2244,2.9841,4.6942,4.1571,7.2149,1.173,2.5207,2.1918,5.0923,3.0563,7.7147,1.729,5.2448,3.0671,10.6527,4.1791,16.1009,1.0401,5.4377,1.9259,10.9263,2.5138,16.4447.6597,5.5289,1.1038,11.0263,1.3936,16.5745l-.0105.0719-.0719-.0105c-8.0798-1.4752-16.389-1.8828-24.5176-1.016-.5241.0702-1.0378.0685-1.5619.1386l-1.5006.221-3.073.4316c-2.0352.3631-4.0196.8804-6.0548,1.2435-1.9949.5892-3.9792,1.1066-5.9022,1.7063-1.9335.6716-3.867,1.3432-5.811,2.0867-7.6428,3.0668-14.8876,6.9259-21.7238,11.5055-6.8362,4.5796-13.3043,9.6534-19.5269,15.0568l-.0614-.0824c6.0894-5.4963,12.5066-10.7244,19.2815-15.3864,6.8468-4.6514,14.1126-8.6543,21.7553-11.7211,1.944-.7435,3.8775-1.4151,5.8215-2.1586,1.9949-.5892,3.9897-1.1784,5.9846-1.7677,2.0457-.435,4.0301-.9523,6.0653-1.3154l3.0835-.5034,1.5006-.221c.5241-.0702,1.0378-.0685,1.5619-.1386,8.2005-.8563,16.5816-.4382,24.7228,1.1194l-.752.6241c-.2179-5.5377-.7339-11.0456-1.3217-16.564-.5878-5.5184-1.4018-10.9965-2.37-16.4237-.4841-2.7136-1.112-5.4482-1.7503-8.111-.6384-2.6628-1.4205-5.3465-2.2131-7.9584-.8645-2.6224-1.8009-5.2553-2.902-7.7655-1.1222-2.3664-2.3776-4.8258-3.952-7.1115h0Z"/></g><path id="uuid-f0e3ff3d-4c95-4a08-b1b0-cd2740e0e5fe" fill="#eee" d="M150.8611,126.9677s26.246.241,38.6505,1.7613c12.4044,1.5203,9.6625-17.3803-2.0211-16.2992-2.5714-14.5444-25.6857-23.6507-34.8736-10.0183-16.4666-6.3722-24.3626,23.5261-1.7557,24.5563Z" isolation="isolate" mix-blend-mode="screen" opacity=".3"/><g id="uuid-54340bc6-adb6-42e4-84f8-46f6c90fb74e" opacity=".15"><path id="uuid-1fc2a732-fd74-4230-be16-cbfda748fc99" fill="#eee" d="M150.8611,126.9677l8.3215-.1779c2.7838.04,5.5781.0082,8.3618.0482,5.5676.0801,11.1036.3758,16.701.7538,1.3761.1278,2.7522.2557,4.2002.394,1.448.1383,2.6699.317,3.9443.1363s2.3963-.8242,3.2622-1.7253c.3611-.4611.7327-.994.971-1.6199.1139-.277.2383-.6258.3523-.9028.042-.2875.1665-.6364.2085-.9239.3065-2.598-.6088-5.3747-2.2972-7.3834-.8801-1.0096-2.0074-1.8352-3.2486-2.3838-1.2412-.5486-2.6787-.7588-4.0145-.6605l.0105-.0719c1.4182-.1597,2.7838.04,4.1073.5272,1.3236.4872,2.4508,1.3128,3.4028,2.3329,1.904,2.0403,2.8807,4.8994,2.6145,7.7235-.1278,1.3761-.6255,2.7716-1.5843,3.8059-.9588,1.0344-2.2349,1.7287-3.5917,1.9707-1.3568.2421-2.8048.1037-4.1704-.096-1.3761-.1278-2.7522-.2557-4.1284-.3835-5.515-.4394-11.0615-.6632-16.6081-.8871-5.7727-.1835-11.2578-.3249-16.8149-.4768h0Z"/></g><g isolation="isolate"><path fill="#c4f9ff" d="M166.1975,93.5728c-1.5651-4.2626-3.9521-8.9486-6.4173-12.3388-33.9725-13.2714-92.0252-11.4017-126.4865.2113-5.7487,2.0286-11.438,4.5924-16.0918,8.6065,9.3516-8.1178,21.8352-11.3399,33.641-14.1022,32.286-6.6939,78.3607-7.8077,109.0717,4.9724,2.8013,3.8107,4.6836,8.2383,6.2829,12.6508h0Z"/></g></g><g id="uuid-2fb51192-3c3c-4e77-a659-4ea972e1be68"><path id="uuid-07b19ce1-8411-43b2-84dd-0af5a3b07e06" fill="#eee" d="M480.9305,211.0116l-13.744,6.7902,11.8624-10.2262c-10.1444-18.2435-24.1338-34.9327-38.2051-42.0501-12.4351,14.1531-28.0607,39.6776-36.1598,54.976,28.1425,12.8441,50.8855,38.2869,56.7758,56.4486,0,0,26.2608-13.4168,32.4784-27.079-1.2271-11.5352-6.0539-25.4428-13.0077-38.8595Z" isolation="isolate" mix-blend-mode="screen" opacity=".3"/><path id="uuid-cc0d84e4-2ab5-4a18-97ae-195ac0cfb470" fill="#eee" d="M441.1711,175.5881c-5.563,7.6083-19.7979,30.6786-24.2974,38.2051-.7363,1.2271-.3273,2.8633.8999,3.5996.1636.0818.3273.2454.5727.3272,1.2271.7363,2.8633.3272,3.5996-.8999,4.4177-7.3629,18.3254-30.515,23.643-38.1233.8999-1.309.4908-3.027-.8999-3.845l-.0818-.0818c-1.2271-.5727-2.6997-.2454-3.436.8181h0Z" isolation="isolate" opacity=".15"/><path id="uuid-601583bd-49ba-45e6-a6ee-2e7245d48b7c" fill="#eee" d="M448.3703,180.0058s-22.6613,37.387-24.2974,40.6594c5.2358,3.436,19.8797,15.1348,23.0703,18.9798,2.7815-3.1906,14.0713-15.7074,14.0713-15.7074l-17.9981-20.616,11.8624-17.18-6.7084-6.1357Z" isolation="isolate" opacity=".15"/><path id="uuid-d6f22a13-a014-4a0d-a42a-2ce41a162867" fill="#eee" d="M449.0247,242.4265c2.2089-2.4543,22.4976-20.4524,27.8152-24.5429,5.154,9.6535,9.4081,26.4245,9.6535,30.4332-4.7449,5.7267-22.4976,17.18-22.743,17.5891-3.5178-10.7171-14.7257-23.4793-14.7257-23.4793Z" isolation="isolate" opacity=".15"/><path id="uuid-682748ab-b1df-4543-87a3-580f1dda77fb" fill="#eee" d="M471.8496,173.1338l-20.1251,24.1338c-1.6362,1.5544-1.7998,4.1723-.3273,5.8903l11.0443,14.2349c1.2271,1.3908,3.2724,1.5544,4.7449.409l22.8249-20.2888c1.4726-1.1453,1.718-3.2724.6545-4.745l-13.6622-19.1434c-1.2271-1.718-3.6814-1.8816-5.154-.4909h0Z" isolation="isolate" mix-blend-mode="screen" opacity=".3"/><g id="uuid-ec859d8a-0640-44ce-9a6c-e0911987e30b" opacity=".15"><path id="uuid-b67e973f-01d1-496d-a5da-207ea9807252" fill="#fadcf7" d="M451.3972,203.1579c.9817,1.1453,1.9634,2.2907,2.9451,3.436.9817,1.1453,1.9634,2.2907,2.8633,3.436l2.8633,3.5178c.9817,1.1453,1.8816,2.3725,2.8633,3.5178h0c.8181.8999,2.2089,1.1453,3.2724.5727.4908-.2454,1.0635-.8181,1.5544-1.309l1.6362-1.4726,6.7084-5.8903c2.2089-1.9634,4.5813-3.8451,6.7902-5.8085,1.1454-.9817,2.2907-1.8816,3.436-2.8633s2.2907-1.8816,3.5178-2.7815l.0818.0818-13.3349,11.9442-6.7084,5.9721-1.6362,1.4726c-.5727.4909-1.0635,1.0635-1.7998,1.3908-1.3908.7363-3.1906.3272-4.1723-.8181h0l-10.8807-14.3985Z"/></g><g id="uuid-2c0f974f-2a22-404b-a558-7ece8c2b8861" isolation="isolate"><path id="uuid-16bc083c-9a62-4888-87cb-5c904b8f2a53" fill="#c4f9ff" d="M452.6244,199.8037c1.8816-.1636,3.8451-.2454,5.7267-.3272l5.7267-.1636c1.8816-.0818,3.8451,0,5.7267,0h2.7815c.6545,0,1.2271-.3272,1.6362-.8999.1636-.2454.3273-.5727.409-.8181,0-.1636.0818-.3272.0818-.4909v-.6545c0-.9817-.0818-1.8816-.0818-2.8633,0-1.8816-.1636-3.845-.0818-5.7267v-5.7267c.0818-1.8816.0818-3.845.2454-5.7267h.0818l.5727,11.4533.3273,5.7267.1636,2.8633c0,.4909.0818.9817,0,1.4726s-.3273.9817-.5727,1.309c-.5727.8181-1.5544,1.309-2.5361,1.309s-1.8816-.0818-2.8633-.0818l-5.7267-.1636-11.4533-.3272-.1637-.1636Z"/></g><g id="uuid-290f585f-3e3f-46cc-87b1-12eb59f3f5d2" opacity=".3"><path id="uuid-18479f45-b531-4004-b356-e928e9c3af51" fill="#c4f9ff" d="M452.6244,199.8037l11.4533.3272,5.7267.1636c.9817,0,1.8816.0818,2.8633.0818.8999,0,1.7998-.4909,2.2907-1.2271.2454-.3272.4908-.8181.5727-1.2271.0818-.409.0818-.8999,0-1.3908l-.1636-2.8633-.2454-5.7267-.5727-11.4533h.1636c.409,1.8816.6545,3.7632.9817,5.6449.2454,1.8816.4908,3.7632.6545,5.7267.2454,1.8816.3273,3.7632.4908,5.7267.0818.9817.1636,1.8816.1636,2.8633v.7363c0,.3272,0,.6545-.0818,1.0635-.1636.6545-.409,1.309-.8181,1.8816-.8181,1.1453-2.2089,1.7998-3.5996,1.7998h-1.5544c-.4908,0-.9817,0-1.3908-.0818-1.8816-.1636-3.8451-.2454-5.7267-.409s-3.8451-.3272-5.7267-.5727c-1.8816-.3272-3.8451-.4909-5.7267-.8181l.2455-.2454Z" isolation="isolate" mix-blend-mode="screen"/></g><g isolation="isolate"><path fill="#c4f9ff" d="M460.4598,181.313c-5.8391-6.0135-12.2705-11.6665-19.8022-15.419,0,0,.4963-.0957.4963-.0957-3.5725,4.146-6.8879,8.5181-10.072,12.98-9.5403,13.4173-18.2363,27.4253-26.398,41.7231,7.4454-14.7132,16.0262-28.8686,25.6113-42.2886,3.2993-4.5369,6.7199-8.9985,10.4535-13.2031,7.6428,3.976,14.1004,9.8516,19.7112,16.3032h0Z"/></g></g><g mix-blend-mode="overlay"><path fill="url(#uuid-12a30a64-f3f6-4e13-836b-80ac1e278a1d)" d="M1781.8292,310.1934c40.1726.7807,30.1649-31.2438,60.1741-16.72,6.0709,3.0271,12.3699,6.6888,19.1228,6.0541,32.1926,2.6438-31.9318,34.2163-41.4214,33.3419-16.538,3.8164-46.639,11.4187-56.2799-6.7343-.964-8.3499,12.1951-14.428,18.4043-15.9417Z"/><path fill="url(#uuid-d0f661ba-d21c-42b1-8566-cd17b1dfef44)" d="M1837.0501,335.0607c-10.0259,6.4278-20.8592,12.0114-32.5979,14.0209-11.7387,2.0095-24.5565.0719-33.9183-7.2895-3.5465-2.7887-6.6378-6.5228-7.3829-10.9724-1.4102-8.4213,6.284-16.1194,14.5831-18.1275,8.2991-2.0081,16.9606.039,25.361,1.5686,8.4004,1.5296,17.5228,2.4377,25.0801-1.5366,4.4654-2.3483,7.9826-6.22,12.437-8.5892,6.0834-3.2356,29.5651-8.1194,31.0008-.5522,1.8748,9.8813-27.8114,27.1493-34.5629,31.4777Z"/></g><path fill="url(#uuid-197ea80a-a822-4f77-9a19-7ab179ee72a8)" d="M451.2537,400.9927c4.9598-4.6735,10.147-9.2876,16.3433-12.1244,6.1963-2.8368,13.6298-3.6938,19.7806-.7596,2.6354,1.2572,5.2835,3.2248,8.154,2.6897,2.8857-.5379,4.7115-3.4519,5.5031-6.2785.7916-2.8266.9325-5.8603,2.2173-8.4996,1.3353-2.7429,3.7974-4.8209,5.0799-7.5889,2.3464-5.0642-.0812-11.5153-4.6855-14.6701-4.6043-3.1548-10.7868-3.35-16.0724-1.5569-5.2855,1.7931-9.7954,5.3524-13.7685,9.2724-9.6995,9.57-16.8379,21.7123-20.4832,34.8416-.4916,1.7707-1.9477,2.961-2.7166,4.6302" mix-blend-mode="overlay"/><path fill="url(#uuid-c810d92d-ea80-446d-9b52-66bf8678c958)" d="M1862.0901.0165h-28.53c-6.2257,12.5488-5.828,27.082-10.22,40.1899-4.1327,12.1421-12.3773,22.5664-17.4994,34.2119-1.6071-9.1704-2.4279-18.522-3.6326-27.7686-.0916-1.9912-1.6056-3.7866-3.4773-2.3511-15.0248,8.3198-28.309,19.5532-39.3044,32.7148,1.7595-13.127,4.561-26.1216,9.0344-38.8584,1.3739-4.5132,2.4873-10.3257-1.2699-13.1797-48.8402-9.8242-105.4703,27.9731-114.1495,77.5239-3.8003,24.7744-13.6035,52.3984,2.6041,75.1064,17.4152,23.23,48.3143,22.5508,72.5135,9.5967,3.9052,14.3848,11.3857,27.915,22.9056,39.4219,15.9695,18.5747,53.0067-6.3203,72.3073-29.8989-.2847,2.2319-.9182,4.5303-1.9818,6.8809,15.0779,24.8257,67.6025-14.7007,74.9199-34.27,38.3326-80.7183-37.2435-108.2471-34.22-169.3198Z"/><path fill="url(#uuid-a9f81d35-d513-4c40-aeae-09b22f1c5563)" d="M1842.9801.0167c-6.9911,12.45-4.474,26.0964-9.0396,39.4001-6.4653,17.608-20.8747,31.7579-24.3102,50.6201-7.2599,23.0328,12.4459,46.453,1.7616,62.7901-12.2413,15.3475-64.6381,21.0348-79.7118,7.3895-4.6801-3.3197-7.7277-8.4497-12.4001-11.7798-7.6527-4.8347-17.6156-5.4771-24.1797-12.2104-21.3-19.1781-16.4725-53.7793-.1691-74.9894,5.3988-7.7904,15.4388-14.2904,19.5887-22.2504-29.5116,11.0436-38.2089,48.6465-63.5099,65.6401-4.1322,2.5629-8.5403,5.573-9.3598,10.7302-1.2188,10.6747-.1028,27.209-16.3411,20.0697-37.0452-36.9458-29.727-111.9553,20.4501-135.4083.4441-.0087,187.5972.2669,187.9009-.2217-.03.0801-.0601.1499-.1001.2202h9.42Z"/><path fill="url(#uuid-31c15921-8c6a-4153-b18d-73ce4430a71c)" d="M1677.6065,166.2403c17.698,23.6075,55.7933,11.0479,68.8391-11.4818.1892-27.919-1.3179-56.671,8.1844-83.7268.938-3.0813,1.6982-7.0497-.867-8.9983-33.3444-6.7073-72.009,19.0985-77.9344,52.9287-2.5946,16.9145-9.2877,35.7746,1.7779,51.2783Z"/><path fill="url(#uuid-7bf541d1-51e7-4055-9e12-f75362bdf468)" d="M1742.8871,210.0811c14.8224,16.7279,54.0837-18.4977,57.4897-34.8728,5.5849-21.2983-11.4809-39.6595-17.6616-58.8605-2.9987-9.4002-3.6357-19.358-4.9105-29.1422-.1067-.819-.3986-1.8314-1.2162-1.9489-42.329,21.5757-72.0957,86.6104-33.7014,124.8244Z"/><path fill="url(#uuid-fb187f22-15fa-4c00-a773-93adbfe8ce25)" d="M1803.1997,186.3672c-1.5293-.7602-2.8775-1.8974-3.7038-3.4088,2.259-8.0925-1.6171-14.3228-8.4546-17.7843-4.0417-3.6301-3.2271-9.9864-3.5606-15.4089-.9353-15.208-13.2741-28.1744-13.2167-43.411.0443-11.781,7.5172-22.2512,9.5668-33.8526-.3992-28.4177,7.1996-51.1661,36.6705-61.3271-8.8663,6.2533-13.4203,16.7548-15.7303,27.0534l1.2706-2.1727c-2.8851,25.5491,21.3772,41.7709,33.6262,61.1858,22.6549,31.0895,4.9745,89.4058-36.4681,89.1263Z"/><path fill="url(#uuid-67429a20-9ffe-4aa0-9ec0-f7bba724923b)" d="M1700.2131,145.6379c.7928-3.9353-3.1416-9.6587-2.0811-13.5313.9541,1.535,1.9083,3.07,2.8624,4.6051.7941-.7078,1.5881-1.4155,2.3822-2.1233,1.2062,1.3338,3.198,1.8347,4.895,1.2311-6.6264,14.177,6.548,23.8352,13.0775,6.9853.1494,1.0591-.1051,5.1527.0443,6.2118,10.6792-4.9982-1.0647,7.79,3.3016,9.4614,2.46.8674,7.2566-7.1888,9.0995-5.3049,1.0951,1.1194-.0581,2.9748-.6474,4.48-1.3404,3.4234.9423,7.4289,4.163,8.8682,11.0869,3.3831,22.951-8.3853,28.8554-17.7967-11.306,1.6887-26.598,3.3099-37.7945-3.3892-6.2892-3.9945-10.9369-10.4572-17.5591-13.8407-3.2786-1.6751-6.932-2.5314-10.1124-4.3942-4.6393-2.7174-9.8797-13.018-11.5116-1.8001-.9613,6.6078-.0846,17.9505,11.0253,20.3374Z"/><path fill="url(#uuid-28f59dd0-46f4-4b3d-8cbb-f63bb78ba607)" d="M1827.711,11.5648c-40.9635,23.3734-23.3565,33.8465-38.8385,62.6703-19.3943,29.5271-11.064,32.7262-8.3196,62.1992-2.4697,15.9943-42.8188,17.7107-53.9853,10.3155-6.9619-5.147-11.9743-10.7077-21.1575-12.4036-16.2763-7.0598-20.0014-29.7754-12.3888-44.9415,3.4631-10.304,13.6025-17.1592,19.2596-25.5601-20.165,7.5467-25.9208,33.0325-43.3598,44.8203-10.4425,4.1326-3.834,15.615-9.9091,21.1404-7.8421,4.3319-13.4059-5.8542-16.3907-11.7204-9.5603-19.0704-9.5002-43.8605,1.5597-62.1603,46.6505-58.649,91.3142,2.5545,139.1901-44.3599h44.34Z"/><path fill="url(#uuid-45e460d0-b41b-4731-aa9c-1994c03a3ba8)" d="M1700.2131,145.6379c.6172-3.1117,1.3456-6.2013,2.1835-9.2609.798,1.2249,1.596,2.4497,2.394,3.6746.6467-.5539,1.2933-1.1078,1.94-1.6617,1.0035,1.0676,2.6456,1.4821,4.0355,1.0187-5.4331,11.025,5.7868,18.9017,10.8139,5.6508.1322.8407.2643,1.6813.3965,2.522,8.7116-3.8441.5959,5.7638,4.1713,7.4199,2.0304.709,4.2243-3.1248,5.7562-1.6157.9103.8968-.0216,2.3569-.4929,3.5446-.2148,16.2179,24.6937,2.1225,28.3628-6.4711-23.1111,1.5876-29.8402-.9785-46.9563-14.4568-2.7114-1.3548-7.4231-1.5029-10.0544-3.0072-5.322-2.8828-5.9873-8.1334-7.7804-2.0904-.7322,5.228,1.4672,11.1083,5.2304,14.7333Z"/><path fill="url(#uuid-d3e0ea70-1b14-48fa-8705-6b6d6e6ef509)" d="M1813.6922.0152c-17.28,30.02,3.6483,81.7138-33.76,96.8896-12.86,12.8501-19.45,18.0503-35.8401,16.8403-3.3599-.2402-6.58-1.5298-9.1799-3.6699-29.95-24.6802-44.1599-5.6099-50.5601-21.2202-9.24-24.1499,5.1583-45.0967,29.1243-66.7791,6.2407-5.6461,28.3017-15.9309,34.1317-22.0608h66.0841Z"/><rect width="363.09" height="249.69" x="1556.92" y=".017" fill="none"/></g></g></svg>